<?xml version="1.0" encoding="UTF-8" standalone="no"?>
<!-- Generator: Adobe Illustrator 18.0.0, SVG Export Plug-In . SVG Version: 6.00 Build 0)  -->

<svg
   xmlns:dc="http://purl.org/dc/elements/1.1/"
   xmlns:cc="http://creativecommons.org/ns#"
   xmlns:rdf="http://www.w3.org/1999/02/22-rdf-syntax-ns#"
   xmlns:svg="http://www.w3.org/2000/svg"
   xmlns="http://www.w3.org/2000/svg"
   xmlns:sodipodi="http://sodipodi.sourceforge.net/DTD/sodipodi-0.dtd"
   xmlns:inkscape="http://www.inkscape.org/namespaces/inkscape"
   version="1.1"
   x="0px"
   y="0px"
   viewBox="0 0 100 100"
   xml:space="preserve"
   id="svg2"
   inkscape:version="0.91 r"
   sodipodi:docname="facebook_logo.svg"
   width="100"
   height="100"><metadata
     id="metadata18"><rdf:RDF><cc:Work
         rdf:about=""><dc:format>image/svg+xml</dc:format><dc:type
           rdf:resource="http://purl.org/dc/dcmitype/StillImage" /><dc:title></dc:title></cc:Work></rdf:RDF></metadata><defs
     id="defs16" /><sodipodi:namedview
     pagecolor="#ffffff"
     bordercolor="#666666"
     borderopacity="1"
     objecttolerance="10"
     gridtolerance="10"
     guidetolerance="10"
     inkscape:pageopacity="0"
     inkscape:pageshadow="2"
     inkscape:window-width="1366"
     inkscape:window-height="676"
     id="namedview14"
     showgrid="false"
     inkscape:zoom="2.4583333"
     inkscape:cx="9.8460394"
     inkscape:cy="40.100183"
     inkscape:window-x="0"
     inkscape:window-y="24"
     inkscape:window-maximized="1"
     inkscape:current-layer="svg2" /><g
     id="Layer_283"
     transform="scale(2.0833333,2.0833333)"><g
       id="g5"><rect
         style="fill:#3c5b9b"
         width="48"
         height="48"
         id="rect7"
         x="0"
         y="0" /><g
         id="g9"><path
           style="fill:#ffffff"
           d="m 20.018,39.035 6,0 c 0,0 0,-8.282 0,-15 l 4.453,0 0.547,-6 -4.768,0 0,-2.399 c 0,-1.169 0.779,-1.441 1.326,-1.441 0.547,0 3.366,0 3.366,0 l 0,-5.142 -4.635,-0.019 c -5.145,0 -6.314,3.834 -6.314,6.288 l 0,2.712 -2.975,0 0,6 3,0 c 0,6.8 0,15.001 0,15.001 z"
           id="path11"
           inkscape:connector-curvature="0" /></g></g></g><g
     id="Layer_1"
     transform="translate(0,52)" /></svg>